<?xml version="1.0" encoding="UTF-8"?>
<!DOCTYPE svg PUBLIC "-//W3C//DTD SVG 1.1//EN" "http://www.w3.org/Graphics/SVG/1.1/DTD/svg11.dtd">
<svg xmlns="http://www.w3.org/2000/svg" version="1.1" width="512px" height="512px" style="shape-rendering:geometricPrecision; text-rendering:geometricPrecision; image-rendering:optimizeQuality; fill-rule:evenodd; clip-rule:evenodd" xmlns:xlink="http://www.w3.org/1999/xlink">
<g><path style="opacity:0.97" fill="#000000" d="M 14.5,-0.5 C 81.1667,-0.5 147.833,-0.5 214.5,-0.5C 225.239,5.20378 228.406,13.8704 224,25.5C 222.093,29.0388 219.26,31.5388 215.5,33C 181.871,34.1494 148.204,34.6494 114.5,34.5C 81.1207,34.6529 47.7874,34.1529 14.5,33C 3.47373,26.9188 0.6404,18.0854 6,6.5C 8.44117,3.54644 11.2745,1.21311 14.5,-0.5 Z"/></g>
<g><path style="opacity:0.979" fill="#000000" d="M 127.5,511.5 C 119.167,511.5 110.833,511.5 102.5,511.5C 66.2863,503.451 44.7863,481.118 38,444.5C 37.5,313.167 37.3333,181.834 37.5,50.5C 88.8333,50.5 140.167,50.5 191.5,50.5C 191.667,182.834 191.5,315.167 191,447.5C 182.986,482.014 161.819,503.347 127.5,511.5 Z M 78.5,76.5 C 102.836,76.3334 127.169,76.5 151.5,77C 158.667,78.8333 163.167,83.3333 165,90.5C 165.667,207.167 165.667,323.833 165,440.5C 160.167,465.333 145.333,480.167 120.5,485C 96.1333,485.902 78.6333,475.402 68,453.5C 66.7977,450.226 65.7977,446.893 65,443.5C 63.355,326.85 63.0217,210.184 64,93.5C 64.781,84.2287 69.6144,78.562 78.5,76.5 Z"/></g>
<g><path style="opacity:0.942" fill="#000000" d="M 310.5,50.5 C 326.621,48.7089 340.954,52.8756 353.5,63C 373.316,81.9445 387.316,104.611 395.5,131C 418.4,126.929 441.4,126.595 464.5,130C 499.765,138.362 513.265,160.195 505,195.5C 501.077,206.68 496.077,217.346 490,227.5C 483.375,237.286 476.208,246.62 468.5,255.5C 481.465,269.404 491.965,285.07 500,302.5C 517.779,349.104 501.946,375.937 452.5,383C 433.321,384.142 414.321,383.142 395.5,380C 388.399,400.039 378.566,418.539 366,435.5C 356.344,448.074 343.844,456.241 328.5,460C 312.373,462.289 298.04,458.289 285.5,448C 269.841,433.531 258.008,416.364 250,396.5C 248.025,390.904 245.858,385.404 243.5,380C 231.982,381.853 220.315,383.02 208.5,383.5C 208.5,377.5 208.5,371.5 208.5,365.5C 218.667,365.313 228.667,363.979 238.5,361.5C 233.269,342.445 229.435,323.112 227,303.5C 220.899,299.532 215.066,295.199 209.5,290.5C 208.335,282.521 208.168,274.521 209,266.5C 214.517,270.594 219.85,274.927 225,279.5C 225.667,263.5 225.667,247.5 225,231.5C 219.85,236.073 214.517,240.406 209,244.5C 208.168,236.479 208.335,228.479 209.5,220.5C 215.066,215.801 220.899,211.468 227,207.5C 229.435,187.888 233.269,168.555 238.5,149.5C 228.667,147.021 218.667,145.687 208.5,145.5C 208.5,139.5 208.5,133.5 208.5,127.5C 220.332,127.834 231.999,129.001 243.5,131C 250.601,110.961 260.434,92.4611 273,75.5C 282.875,62.9961 295.375,54.6628 310.5,50.5 Z M 313.5,68.5 C 328.744,68.0374 341.244,73.704 351,85.5C 362.564,100.457 371.397,116.957 377.5,135C 357.671,140.413 338.338,147.247 319.5,155.5C 300.701,147.178 281.367,140.345 261.5,135C 267.021,119.124 274.521,104.291 284,90.5C 291.762,80.2174 301.596,72.884 313.5,68.5 Z M 435.5,144.5 C 449.459,144.437 462.792,147.27 475.5,153C 486.788,160.515 491.288,171.015 489,184.5C 482.581,206.689 471.081,225.689 454.5,241.5C 440.933,229.763 426.933,218.596 412.5,208C 410.395,197.609 408.561,187.109 407,176.5C 405.303,167.38 403.136,158.38 400.5,149.5C 403.687,148.135 407.02,147.301 410.5,147C 418.983,146.144 427.317,145.311 435.5,144.5 Z M 381.5,152.5 C 382.117,152.611 382.617,152.944 383,153.5C 386.453,166.766 389.12,180.099 391,193.5C 375.564,183.194 359.397,174.028 342.5,166C 355.432,160.968 368.432,156.468 381.5,152.5 Z M 248.5,192.5 C 250.19,179.386 252.523,166.386 255.5,153.5C 269.607,156.146 283.274,160.313 296.5,166C 279.991,174.084 263.991,182.918 248.5,192.5 Z M 317.5,175.5 C 344.716,186.522 370.216,200.522 394,217.5C 396,242.833 396,268.167 394,293.5C 370.569,310.055 345.569,324.055 319,335.5C 292.887,323.785 268.221,309.785 245,293.5C 243,268.167 243,242.833 245,217.5C 268.002,201.579 292.169,187.579 317.5,175.5 Z M 413.5,231.5 C 423.108,239.103 432.442,247.103 441.5,255.5C 432.481,263.686 423.315,271.686 414,279.5C 413.5,263.503 413.333,247.503 413.5,231.5 Z M 453.5,269.5 C 457.067,271.557 460.234,274.223 463,277.5C 476.803,293.606 485.636,312.106 489.5,333C 489.5,346 483.5,355 471.5,360C 448.074,367.483 424.407,367.983 400.5,361.5C 405.732,342.44 409.565,323.107 412,303.5C 426.604,293.059 440.437,281.725 453.5,269.5 Z M 390.5,317.5 C 391.043,317.56 391.376,317.893 391.5,318.5C 389.152,332.084 385.985,345.417 382,358.5C 368.648,354.605 355.482,350.105 342.5,345C 359.378,337.07 375.378,327.904 390.5,317.5 Z M 248.5,318.5 C 263.991,328.082 279.991,336.916 296.5,345C 283.274,350.687 269.607,354.854 255.5,357.5C 252.523,344.614 250.19,331.614 248.5,318.5 Z M 318.5,355.5 C 337.751,363.455 357.417,370.288 377.5,376C 371.397,394.043 362.564,410.543 351,425.5C 330,448.167 309,448.167 288,425.5C 276.436,410.543 267.603,394.043 261.5,376C 281.213,370.821 300.213,363.987 318.5,355.5 Z"/></g>
<g><path style="opacity:0.946" fill="#000000" d="M 428.5,50.5 C 447.822,49.3231 456.989,58.3231 456,77.5C 449.647,92.512 438.814,97.012 423.5,91C 413.993,84.4789 410.827,75.6456 414,64.5C 416.774,57.5569 421.607,52.8903 428.5,50.5 Z"/></g>
<g><path style="opacity:0.969" fill="#000000" d="M 80.5,92.5 C 103.5,92.5 126.5,92.5 149.5,92.5C 149.5,129.833 149.5,167.167 149.5,204.5C 126.5,204.5 103.5,204.5 80.5,204.5C 80.5,195.833 80.5,187.167 80.5,178.5C 86.8421,178.666 93.1754,178.5 99.5,178C 107.1,173.421 107.433,168.421 100.5,163C 93.8417,162.5 87.175,162.334 80.5,162.5C 80.5,153.5 80.5,144.5 80.5,135.5C 87.175,135.666 93.8417,135.5 100.5,135C 105.535,131.987 106.702,127.82 104,122.5C 103.097,121.299 101.931,120.465 100.5,120C 93.8417,119.5 87.175,119.334 80.5,119.5C 80.5,110.5 80.5,101.5 80.5,92.5 Z"/></g>
<g><path style="opacity:0.97" fill="#000000" d="M 80.5,220.5 C 103.5,220.5 126.5,220.5 149.5,220.5C 149.985,295.203 149.485,369.87 148,444.5C 141.58,461.912 129.08,470.079 110.5,469C 91.7536,465.088 81.7536,453.588 80.5,434.5C 86.8421,434.666 93.1754,434.5 99.5,434C 107.1,429.421 107.433,424.421 100.5,419C 93.8417,418.5 87.175,418.334 80.5,418.5C 80.5,409.5 80.5,400.5 80.5,391.5C 87.175,391.666 93.8417,391.5 100.5,391C 105.535,387.987 106.702,383.82 104,378.5C 103.097,377.299 101.931,376.465 100.5,376C 93.8417,375.5 87.175,375.334 80.5,375.5C 80.5,366.5 80.5,357.5 80.5,348.5C 87.175,348.666 93.8417,348.5 100.5,348C 107.433,342.579 107.1,337.579 99.5,333C 93.1754,332.5 86.8421,332.334 80.5,332.5C 80.5,323.833 80.5,315.167 80.5,306.5C 86.8421,306.666 93.1754,306.5 99.5,306C 107.1,301.421 107.433,296.421 100.5,291C 93.8417,290.5 87.175,290.334 80.5,290.5C 80.5,281.5 80.5,272.5 80.5,263.5C 87.175,263.666 93.8417,263.5 100.5,263C 105.535,259.987 106.702,255.82 104,250.5C 103.097,249.299 101.931,248.465 100.5,248C 93.8417,247.5 87.175,247.334 80.5,247.5C 80.5,238.5 80.5,229.5 80.5,220.5 Z"/></g>
<g><path style="opacity:0.964" fill="#000000" d="M 317.5,220.5 C 339.884,221.55 352.217,233.217 354.5,255.5C 352.498,276.836 340.831,288.502 319.5,290.5C 298.169,288.502 286.502,276.836 284.5,255.5C 286.351,234.987 297.351,223.321 317.5,220.5 Z"/></g>
<g><path style="opacity:0.944" fill="#000000" d="M 413.5,425.5 C 431.809,425.308 440.309,434.308 439,452.5C 432.556,468.467 421.389,472.967 405.5,466C 392.167,453.667 392.167,441.333 405.5,429C 408.158,427.522 410.825,426.355 413.5,425.5 Z"/></g>
</svg>
