<?xml version="1.0" encoding="UTF-8"?>
<!DOCTYPE svg PUBLIC "-//W3C//DTD SVG 1.1//EN" "http://www.w3.org/Graphics/SVG/1.1/DTD/svg11.dtd">
<svg xmlns="http://www.w3.org/2000/svg" version="1.1" width="512px" height="512px" style="shape-rendering:geometricPrecision; text-rendering:geometricPrecision; image-rendering:optimizeQuality; fill-rule:evenodd; clip-rule:evenodd" xmlns:xlink="http://www.w3.org/1999/xlink">
<g><path style="opacity:0.928" fill="#000000" d="M 234.5,-0.5 C 239.833,-0.5 245.167,-0.5 250.5,-0.5C 253.833,2.16667 257.167,2.16667 260.5,-0.5C 265.833,-0.5 271.167,-0.5 276.5,-0.5C 295.229,7.2831 302.729,21.2831 299,41.5C 302.333,44.8333 305.667,48.1667 309,51.5C 320.5,40 332,28.5 343.5,17C 357.51,9.08495 370.844,10.0849 383.5,20C 394.333,30.8333 405.167,41.6667 416,52.5C 435.465,44.7652 450.132,50.0985 460,68.5C 463.591,77.5906 463.091,86.4239 458.5,95C 469.333,105.833 480.167,116.667 491,127.5C 500.915,140.156 501.915,153.49 494,167.5C 482.5,179 471,190.5 459.5,202C 462.833,205.333 466.167,208.667 469.5,212C 489.717,208.271 503.717,215.771 511.5,234.5C 511.5,239.833 511.5,245.167 511.5,250.5C 508.833,253.833 508.833,257.167 511.5,260.5C 511.5,265.833 511.5,271.167 511.5,276.5C 503.73,295.223 489.73,302.723 469.5,299C 466.167,302.333 462.833,305.667 459.5,309C 463.833,313.333 468.167,317.667 472.5,322C 498.422,324.69 509.255,338.857 505,364.5C 503.185,368.796 500.852,372.796 498,376.5C 484.833,389.667 471.667,402.833 458.5,416C 464.561,429.046 463.061,441.212 454,452.5C 442.596,462.782 429.929,464.782 416,458.5C 402.833,471.667 389.667,484.833 376.5,498C 362.996,508.474 348.996,509.141 334.5,500C 326.147,492.79 321.98,483.623 322,472.5C 317.667,468.167 313.333,463.833 309,459.5C 305.667,462.833 302.333,466.167 299,469.5C 302.729,489.717 295.229,503.717 276.5,511.5C 271.167,511.5 265.833,511.5 260.5,511.5C 251.042,505.602 241.042,500.436 230.5,496C 225.327,490.826 221.827,484.659 220,477.5C 214,471.5 208,465.5 202,459.5C 190.5,471 179,482.5 167.5,494C 153.49,501.915 140.156,500.915 127.5,491C 116.667,480.167 105.833,469.333 95,458.5C 75.535,466.235 60.8684,460.901 51,442.5C 47.536,433.424 48.036,424.591 52.5,416C 41.6667,405.167 30.8333,394.333 20,383.5C 10.0849,370.844 9.08495,357.51 17,343.5C 28.5,332 40,320.5 51.5,309C 45.5,303 39.5,297 33.5,291C 26.3411,289.173 20.1744,285.673 15,280.5C 10.5643,269.958 5.39766,259.958 -0.5,250.5C -0.5,245.167 -0.5,239.833 -0.5,234.5C 7.2831,215.771 21.2831,208.271 41.5,212C 44.8333,208.667 48.1667,205.333 51.5,202C 47.1667,197.667 42.8333,193.333 38.5,189C 12.576,186.304 1.7427,172.137 6,146.5C 7.81498,142.204 10.1483,138.204 13,134.5C 26.1667,121.333 39.3333,108.167 52.5,95C 44.7652,75.535 50.0985,60.8684 68.5,51C 77.5906,47.4087 86.4239,47.9087 95,52.5C 102.53,44.6355 110.364,37.1355 118.5,30C 128.037,28.5321 131.537,32.3654 129,41.5C 94.3333,76.1667 59.6667,110.833 25,145.5C 17.9824,155.534 19.4824,164.034 29.5,171C 35.2262,173.325 40.5596,172.658 45.5,169C 87.6945,127.139 129.528,84.9724 171,42.5C 174.043,33.6268 171.543,26.7935 163.5,22C 161.256,21.0943 158.923,20.5943 156.5,20.5C 152.206,21.3952 148.039,22.7285 144,24.5C 138.5,24.3333 135.667,21.5 135.5,16C 137.177,10.634 140.844,7.30066 146.5,6C 172.143,1.74489 186.31,12.5782 189,38.5C 193.333,42.8333 197.667,47.1667 202,51.5C 205.333,48.1667 208.667,44.8333 212,41.5C 208.271,21.2831 215.771,7.2831 234.5,-0.5 Z M 263.5,15.5 C 280.765,15.2567 286.598,23.2567 281,39.5C 265.986,54.6807 250.819,69.6807 235.5,84.5C 228.167,77.8333 221.167,70.8333 214.5,63.5C 230.244,46.754 246.578,30.754 263.5,15.5 Z M 235.5,17.5 C 233.833,19.8333 231.833,21.8333 229.5,23.5C 230.5,20.5 232.5,18.5 235.5,17.5 Z M 359.5,27.5 C 370.645,28.4766 376.478,34.4766 377,45.5C 376.275,47.9494 375.275,50.2827 374,52.5C 363.333,63.1667 352.667,73.8333 342,84.5C 334.833,77.3333 327.667,70.1667 320.5,63C 331.5,52 342.5,41 353.5,30C 355.611,29.1553 357.611,28.322 359.5,27.5 Z M 391.5,52.5 C 414.582,74.0804 437.249,96.2471 459.5,119C 455.456,119.856 451.789,121.522 448.5,124C 444.167,128.333 439.833,132.667 435.5,137C 434.833,137.667 434.167,137.667 433.5,137C 413.667,117.167 393.833,97.3333 374,77.5C 373.333,76.8333 373.333,76.1667 374,75.5C 378.333,71.1667 382.667,66.8333 387,62.5C 389.324,59.5201 390.824,56.1867 391.5,52.5 Z M 181.5,55.5 C 202.415,74.9133 222.915,94.9133 243,115.5C 243.667,116.167 243.667,116.833 243,117.5C 236.5,124 230,130.5 223.5,137C 222.833,137.667 222.167,137.667 221.5,137C 201.667,117.167 181.833,97.3333 162,77.5C 161.333,76.8333 161.333,76.1667 162,75.5C 168.703,68.9648 175.203,62.2982 181.5,55.5 Z M 287.5,55.5 C 308.415,74.9133 328.915,94.9133 349,115.5C 349.667,116.167 349.667,116.833 349,117.5C 342.5,124 336,130.5 329.5,137C 328.833,137.667 328.167,137.667 327.5,137C 307.667,117.167 287.833,97.3333 268,77.5C 267.333,76.8333 267.333,76.1667 268,75.5C 274.703,68.9648 281.203,62.2982 287.5,55.5 Z M 78.5,64.5 C 79.8734,64.3433 81.2068,64.51 82.5,65C 76.6667,70.8333 70.8333,76.6667 65,82.5C 65.123,73.2111 69.623,67.2111 78.5,64.5 Z M 428.5,65.5 C 435.955,64.318 441.455,67.318 445,74.5C 445.995,77.1262 446.328,79.7929 446,82.5C 440.298,76.6304 434.465,70.9638 428.5,65.5 Z M 148.5,88.5 C 151.899,90.3883 154.899,92.8883 157.5,96C 154.667,98.8333 151.833,101.667 149,104.5C 146.317,101.984 143.817,99.3174 141.5,96.5C 143.856,93.8136 146.189,91.147 148.5,88.5 Z M 254.5,88.5 C 258.08,90.4076 261.08,93.0743 263.5,96.5C 261.167,99.5 258.5,102.167 255.5,104.5C 252.5,102.167 249.833,99.5 247.5,96.5C 249.856,93.8136 252.189,91.147 254.5,88.5 Z M 360.5,88.5 C 364.08,90.4076 367.08,93.0743 369.5,96.5C 367.183,99.3174 364.683,101.984 362,104.5C 359.167,101.667 356.333,98.8333 353.5,96C 356.039,93.6303 358.372,91.1303 360.5,88.5 Z M 128.5,108.5 C 131.899,110.388 134.899,112.888 137.5,116C 130.333,123.167 123.167,130.333 116,137.5C 113.317,134.984 110.817,132.317 108.5,129.5C 115.188,122.48 121.855,115.48 128.5,108.5 Z M 168.5,108.5 C 176.424,114.755 183.758,121.755 190.5,129.5C 170.5,150.167 150.167,170.5 129.5,190.5C 122.167,183.833 115.167,176.833 108.5,169.5C 128.521,149.146 148.521,128.813 168.5,108.5 Z M 274.5,108.5 C 282.424,114.755 289.758,121.755 296.5,129.5C 276.5,150.167 256.167,170.5 235.5,190.5C 228.167,183.833 221.167,176.833 214.5,169.5C 234.521,149.146 254.521,128.813 274.5,108.5 Z M 380.5,108.5 C 388.424,114.755 395.758,121.755 402.5,129.5C 382.5,150.167 362.167,170.5 341.5,190.5C 334.167,183.833 327.167,176.833 320.5,169.5C 340.521,149.146 360.521,128.813 380.5,108.5 Z M 465.5,133.5 C 478.92,135.068 484.42,142.401 482,155.5C 471.03,167.471 459.696,179.138 448,190.5C 440.833,183.333 433.667,176.167 426.5,169C 437.167,158.333 447.833,147.667 458.5,137C 460.925,135.787 463.259,134.621 465.5,133.5 Z M 95.5,141.5 C 98.8991,143.388 101.899,145.888 104.5,149C 101.667,151.833 98.8333,154.667 96,157.5C 93.3167,154.984 90.8167,152.317 88.5,149.5C 90.8558,146.814 93.1891,144.147 95.5,141.5 Z M 201.5,141.5 C 205.08,143.408 208.08,146.074 210.5,149.5C 208.167,152.5 205.5,155.167 202.5,157.5C 199.5,155.167 196.833,152.5 194.5,149.5C 196.856,146.814 199.189,144.147 201.5,141.5 Z M 307.5,141.5 C 311.08,143.408 314.08,146.074 316.5,149.5C 314.167,152.5 311.5,155.167 308.5,157.5C 305.5,155.167 302.833,152.5 300.5,149.5C 302.856,146.814 305.189,144.147 307.5,141.5 Z M 413.5,141.5 C 417.08,143.408 420.08,146.074 422.5,149.5C 420.183,152.317 417.683,154.984 415,157.5C 412.167,154.667 409.333,151.833 406.5,149C 409.039,146.63 411.372,144.13 413.5,141.5 Z M 75.5,161.5 C 96.4153,180.913 116.915,200.913 137,221.5C 137.667,222.167 137.667,222.833 137,223.5C 130.5,230 124,236.5 117.5,243C 116.833,243.667 116.167,243.667 115.5,243C 95.6667,223.167 75.8333,203.333 56,183.5C 55.3333,182.833 55.3333,182.167 56,181.5C 62.7027,174.965 69.2027,168.298 75.5,161.5 Z M 181.5,161.5 C 202.415,180.913 222.915,200.913 243,221.5C 243.667,222.167 243.667,222.833 243,223.5C 236.5,230 230,236.5 223.5,243C 222.833,243.667 222.167,243.667 221.5,243C 201.667,223.167 181.833,203.333 162,183.5C 161.333,182.833 161.333,182.167 162,181.5C 168.703,174.965 175.203,168.298 181.5,161.5 Z M 287.5,161.5 C 308.415,180.913 328.915,200.913 349,221.5C 349.667,222.167 349.667,222.833 349,223.5C 342.5,230 336,236.5 329.5,243C 328.833,243.667 328.167,243.667 327.5,243C 307.667,223.167 287.833,203.333 268,183.5C 267.333,182.833 267.333,182.167 268,181.5C 274.703,174.965 281.203,168.298 287.5,161.5 Z M 393.5,161.5 C 414.415,180.913 434.915,200.913 455,221.5C 455.667,222.167 455.667,222.833 455,223.5C 448.5,230 442,236.5 435.5,243C 434.833,243.667 434.167,243.667 433.5,243C 413.667,223.167 393.833,203.333 374,183.5C 373.333,182.833 373.333,182.167 374,181.5C 380.703,174.965 387.203,168.298 393.5,161.5 Z M 148.5,194.5 C 152.08,196.408 155.08,199.074 157.5,202.5C 155.167,205.5 152.5,208.167 149.5,210.5C 146.5,208.167 143.833,205.5 141.5,202.5C 143.856,199.814 146.189,197.147 148.5,194.5 Z M 254.5,194.5 C 258.08,196.408 261.08,199.074 263.5,202.5C 261.167,205.5 258.5,208.167 255.5,210.5C 252.5,208.167 249.833,205.5 247.5,202.5C 249.856,199.814 252.189,197.147 254.5,194.5 Z M 360.5,194.5 C 364.08,196.408 367.08,199.074 369.5,202.5C 367.167,205.5 364.5,208.167 361.5,210.5C 358.5,208.167 355.833,205.5 353.5,202.5C 355.856,199.814 358.189,197.147 360.5,194.5 Z M 62.5,214.5 C 70.0775,220.572 77.2442,227.239 84,234.5C 84.6667,235.167 84.6667,235.833 84,236.5C 72.1667,248.333 60.3333,260.167 48.5,272C 36.8235,277.873 28.6568,274.706 24,262.5C 23.2617,258.598 23.9283,254.932 26,251.5C 38.3687,239.298 50.5353,226.965 62.5,214.5 Z M 168.5,214.5 C 176.424,220.755 183.758,227.755 190.5,235.5C 170.5,256.167 150.167,276.5 129.5,296.5C 122.167,289.833 115.167,282.833 108.5,275.5C 128.521,255.146 148.521,234.813 168.5,214.5 Z M 274.5,214.5 C 282.424,220.755 289.758,227.755 296.5,235.5C 276.5,256.167 256.167,276.5 235.5,296.5C 228.167,289.833 221.167,282.833 214.5,275.5C 234.521,255.146 254.521,234.813 274.5,214.5 Z M 380.5,214.5 C 388.424,220.755 395.758,227.755 402.5,235.5C 396.181,242.319 389.681,248.986 383,255.5C 379.667,259.5 379.667,263.5 383,267.5C 384.739,268.894 386.739,269.561 389,269.5C 391.402,269.315 393.569,268.815 395.5,268C 415.681,288.014 435.681,308.18 455.5,328.5C 448.833,335.833 441.833,342.833 434.5,349.5C 414.18,329.681 394.014,309.681 374,289.5C 374.815,287.569 375.315,285.402 375.5,283C 375.419,277.751 372.752,274.918 367.5,274.5C 365.39,275.054 363.39,275.888 361.5,277C 354.986,283.681 348.319,290.181 341.5,296.5C 334.167,289.833 327.167,282.833 320.5,275.5C 340.521,255.146 360.521,234.813 380.5,214.5 Z M 475.5,227.5 C 492.765,227.257 498.598,235.257 493,251.5C 477.986,266.681 462.819,281.681 447.5,296.5C 440.167,289.833 433.167,282.833 426.5,275.5C 442.244,258.754 458.578,242.754 475.5,227.5 Z M 23.5,229.5 C 21.8333,231.833 19.8333,233.833 17.5,235.5C 18.5,232.5 20.5,230.5 23.5,229.5 Z M 95.5,247.5 C 99.0801,249.408 102.08,252.074 104.5,255.5C 102.167,258.5 99.5,261.167 96.5,263.5C 93.5,261.167 90.8333,258.5 88.5,255.5C 90.8558,252.814 93.1891,250.147 95.5,247.5 Z M 201.5,247.5 C 205.08,249.408 208.08,252.074 210.5,255.5C 208.167,258.5 205.5,261.167 202.5,263.5C 199.5,261.167 196.833,258.5 194.5,255.5C 196.856,252.814 199.189,250.147 201.5,247.5 Z M 307.5,247.5 C 311.08,249.408 314.08,252.074 316.5,255.5C 314.167,258.5 311.5,261.167 308.5,263.5C 305.5,261.167 302.833,258.5 300.5,255.5C 302.856,252.814 305.189,250.147 307.5,247.5 Z M 413.5,247.5 C 417.08,249.408 420.08,252.074 422.5,255.5C 420.167,258.5 417.5,261.167 414.5,263.5C 411.5,261.167 408.833,258.5 406.5,255.5C 408.856,252.814 411.189,250.147 413.5,247.5 Z M 75.5,267.5 C 96.4153,286.913 116.915,306.913 137,327.5C 137.667,328.167 137.667,328.833 137,329.5C 130.5,336 124,342.5 117.5,349C 116.833,349.667 116.167,349.667 115.5,349C 95.1667,328.667 74.8333,308.333 54.5,288C 62.0043,281.662 69.0043,274.829 75.5,267.5 Z M 181.5,267.5 C 202.415,286.913 222.915,306.913 243,327.5C 243.667,328.167 243.667,328.833 243,329.5C 236.5,336 230,342.5 223.5,349C 222.833,349.667 222.167,349.667 221.5,349C 201.667,329.167 181.833,309.333 162,289.5C 161.333,288.833 161.333,288.167 162,287.5C 168.703,280.965 175.203,274.298 181.5,267.5 Z M 287.5,267.5 C 308.415,286.913 328.915,306.913 349,327.5C 349.667,328.167 349.667,328.833 349,329.5C 342.5,336 336,342.5 329.5,349C 328.833,349.667 328.167,349.667 327.5,349C 307.667,329.167 287.833,309.333 268,289.5C 267.333,288.833 267.333,288.167 268,287.5C 274.703,280.965 281.203,274.298 287.5,267.5 Z M 493.5,275.5 C 492.5,278.5 490.5,280.5 487.5,281.5C 489.167,279.167 491.167,277.167 493.5,275.5 Z M 148.5,300.5 C 152.08,302.408 155.08,305.074 157.5,308.5C 155.167,311.5 152.5,314.167 149.5,316.5C 146.5,314.167 143.833,311.5 141.5,308.5C 143.856,305.814 146.189,303.147 148.5,300.5 Z M 254.5,300.5 C 258.08,302.408 261.08,305.074 263.5,308.5C 261.167,311.5 258.5,314.167 255.5,316.5C 252.5,314.167 249.833,311.5 247.5,308.5C 249.856,305.814 252.189,303.147 254.5,300.5 Z M 360.5,300.5 C 364.08,302.408 367.08,305.074 369.5,308.5C 367.167,311.5 364.5,314.167 361.5,316.5C 358.5,314.167 355.833,311.5 353.5,308.5C 355.856,305.814 358.189,303.147 360.5,300.5 Z M 62.5,320.5 C 69.9649,327.464 77.2982,334.631 84.5,342C 73.8333,352.667 63.1667,363.333 52.5,374C 39.2334,380.034 30.9,375.867 27.5,361.5C 28,359.5 28.5,357.5 29,355.5C 40.0059,343.661 51.1725,331.995 62.5,320.5 Z M 168.5,320.5 C 176.424,326.755 183.758,333.755 190.5,341.5C 170.5,362.167 150.167,382.5 129.5,402.5C 122.167,395.833 115.167,388.833 108.5,381.5C 128.521,361.146 148.521,340.813 168.5,320.5 Z M 274.5,320.5 C 282.424,326.755 289.758,333.755 296.5,341.5C 276.5,362.167 256.167,382.5 235.5,402.5C 228.167,395.833 221.167,388.833 214.5,381.5C 234.521,361.146 254.521,340.813 274.5,320.5 Z M 380.5,320.5 C 388.424,326.755 395.758,333.755 402.5,341.5C 382.5,362.167 362.167,382.5 341.5,402.5C 334.167,395.833 327.167,388.833 320.5,381.5C 340.521,361.146 360.521,340.813 380.5,320.5 Z M 471.5,338.5 C 484.798,338.63 490.965,345.297 490,358.5C 488.92,360.996 487.586,363.33 486,365.5C 445.833,405.667 405.667,445.833 365.5,486C 356.588,492.532 348.421,491.699 341,483.5C 337.465,477.257 337.799,471.257 342,465.5C 383.167,424.333 424.333,383.167 465.5,342C 467.432,340.541 469.432,339.375 471.5,338.5 Z M 95.5,353.5 C 98.6306,356.129 101.631,358.962 104.5,362C 101.984,364.683 99.3174,367.183 96.5,369.5C 93.5,367.167 90.8333,364.5 88.5,361.5C 90.8558,358.814 93.1891,356.147 95.5,353.5 Z M 201.5,353.5 C 205.08,355.408 208.08,358.074 210.5,361.5C 208.167,364.5 205.5,367.167 202.5,369.5C 199.5,367.167 196.833,364.5 194.5,361.5C 196.856,358.814 199.189,356.147 201.5,353.5 Z M 307.5,353.5 C 311.08,355.408 314.08,358.074 316.5,361.5C 314.167,364.5 311.5,367.167 308.5,369.5C 305.5,367.167 302.833,364.5 300.5,361.5C 302.856,358.814 305.189,356.147 307.5,353.5 Z M 414.5,353.5 C 417.479,355.812 420.146,358.479 422.5,361.5C 420.167,364.5 417.5,367.167 414.5,369.5C 411.683,367.183 409.016,364.683 406.5,362C 409.371,359.297 412.038,356.464 414.5,353.5 Z M 75.5,373.5 C 96.4153,392.913 116.915,412.913 137,433.5C 137.667,434.167 137.667,434.833 137,435.5C 129.117,441.873 122.95,449.539 118.5,458.5C 96.0138,436.514 73.6805,414.347 51.5,392C 55.5442,391.144 59.2108,389.478 62.5,387C 67.0367,382.631 71.3701,378.131 75.5,373.5 Z M 181.5,373.5 C 202.415,392.913 222.915,412.913 243,433.5C 243.667,434.167 243.667,434.833 243,435.5C 235.968,442.197 229.302,449.197 223,456.5C 202.667,436.167 182.333,415.833 162,395.5C 161.333,394.833 161.333,394.167 162,393.5C 168.703,386.965 175.203,380.298 181.5,373.5 Z M 287.5,373.5 C 308.415,392.913 328.915,412.913 349,433.5C 349.667,434.167 349.667,434.833 349,435.5C 342.5,442 336,448.5 329.5,455C 328.833,455.667 328.167,455.667 327.5,455C 307.667,435.167 287.833,415.333 268,395.5C 267.333,394.833 267.333,394.167 268,393.5C 274.703,386.965 281.203,380.298 287.5,373.5 Z M 394.5,373.5 C 397.479,375.812 400.146,378.479 402.5,381.5C 395.833,388.833 388.833,395.833 381.5,402.5C 378.683,400.183 376.016,397.683 373.5,395C 380.703,387.965 387.703,380.798 394.5,373.5 Z M 148.5,406.5 C 151.631,409.129 154.631,411.962 157.5,415C 154.984,417.683 152.317,420.183 149.5,422.5C 146.5,420.167 143.833,417.5 141.5,414.5C 143.856,411.814 146.189,409.147 148.5,406.5 Z M 254.5,406.5 C 258.08,408.408 261.08,411.074 263.5,414.5C 261.167,417.5 258.5,420.167 255.5,422.5C 252.5,420.167 249.833,417.5 247.5,414.5C 249.856,411.814 252.189,409.147 254.5,406.5 Z M 361.5,406.5 C 364.479,408.812 367.146,411.479 369.5,414.5C 367.167,417.5 364.5,420.167 361.5,422.5C 358.683,420.183 356.016,417.683 353.5,415C 356.371,412.297 359.038,409.464 361.5,406.5 Z M 168.5,426.5 C 175.965,433.464 183.298,440.631 190.5,448C 179.5,459 168.5,470 157.5,481C 144.474,485.65 136.474,481.15 133.5,467.5C 134.21,464.327 135.377,461.327 137,458.5C 147.702,447.965 158.202,437.298 168.5,426.5 Z M 274.5,426.5 C 282.078,432.572 289.244,439.239 296,446.5C 296.667,447.167 296.667,447.833 296,448.5C 283.833,460.667 271.667,472.833 259.5,485C 246.414,489.623 238.414,485.123 235.5,471.5C 236.175,468.309 237.342,465.309 239,462.5C 251.035,450.632 262.869,438.632 274.5,426.5 Z M 64.5,428.5 C 70.6314,434.13 76.6314,439.964 82.5,446C 71.4766,445.478 65.4766,439.645 64.5,428.5 Z M 445.5,428.5 C 446.682,435.955 443.682,441.455 436.5,445C 433.874,445.995 431.207,446.328 428.5,446C 434.37,440.298 440.036,434.465 445.5,428.5 Z M 281.5,487.5 C 280.5,490.5 278.5,492.5 275.5,493.5C 277.167,491.167 279.167,489.167 281.5,487.5 Z"/></g>
</svg>
