<?xml version="1.0" encoding="UTF-8"?>
<!DOCTYPE svg PUBLIC "-//W3C//DTD SVG 1.1//EN" "http://www.w3.org/Graphics/SVG/1.1/DTD/svg11.dtd">
<svg xmlns="http://www.w3.org/2000/svg" version="1.1" width="512px" height="512px" style="shape-rendering:geometricPrecision; text-rendering:geometricPrecision; image-rendering:optimizeQuality; fill-rule:evenodd; clip-rule:evenodd" xmlns:xlink="http://www.w3.org/1999/xlink">
<g><path style="opacity:0.971" fill="#000000" d="M 511.5,391.5 C 511.5,417.833 511.5,444.167 511.5,470.5C 508.856,475.966 504.523,479.466 498.5,481C 336.5,481.667 174.5,481.667 12.5,481C 6.05784,479.383 1.72451,475.55 -0.5,469.5C -0.5,430.5 -0.5,391.5 -0.5,352.5C 2.8058,290.954 19.6391,233.287 50,179.5C 103.114,93.8101 179.948,44.3101 280.5,31C 326.149,25.9973 369.815,32.9973 411.5,52C 476.49,87.1398 504.657,141.64 496,215.5C 489.268,251.82 472.101,281.986 444.5,306C 435.101,314.027 424.435,316.694 412.5,314C 405.071,310.555 400.571,304.722 399,296.5C 398.667,270.167 398.333,243.833 398,217.5C 397.044,202.301 393.044,187.968 386,174.5C 374.839,159.501 360.006,150.501 341.5,147.5C 324.12,148.773 310.287,156.44 300,170.5C 279.315,201.613 273.982,235.28 284,271.5C 296.253,308.165 319.753,334.998 354.5,352C 384.893,366.481 416.893,375.147 450.5,378C 466.815,379.28 483.148,380.28 499.5,381C 504.932,382.936 508.932,386.436 511.5,391.5 Z M 306.5,63.5 C 342.139,63.2427 375.472,71.7427 406.5,89C 448.362,115.559 467.195,153.725 463,203.5C 459.718,228.381 449.718,250.048 433,268.5C 434.511,242.689 433.177,217.022 429,191.5C 419.035,149.202 392.869,123.368 350.5,114C 258.542,109.895 187.042,145.729 136,221.5C 96.4275,286.553 88.7609,355.219 113,427.5C 115.448,434.182 118.282,440.682 121.5,447C 92.1686,447.5 62.8352,447.667 33.5,447.5C 33.3334,418.831 33.5,390.165 34,361.5C 36.0066,293.486 56.0066,231.486 94,175.5C 147.514,105.656 218.347,68.323 306.5,63.5 Z M 254.5,179.5 C 255.043,179.56 255.376,179.893 255.5,180.5C 234.651,240.752 244.818,295.085 286,343.5C 309.384,367.846 337.217,385.346 369.5,396C 404.588,407.418 440.588,413.584 477.5,414.5C 477.5,425.5 477.5,436.5 477.5,447.5C 425.801,447.973 374.134,447.473 322.5,446C 250.493,430.323 210.326,385.823 202,312.5C 198.27,259.479 215.77,215.146 254.5,179.5 Z M 183.5,215.5 C 184.043,215.56 184.376,215.893 184.5,216.5C 167.184,255.702 162.684,296.369 171,338.5C 180.131,383.234 202.631,419.401 238.5,447C 212.5,447.667 186.5,447.667 160.5,447C 124.685,380.99 124.518,314.824 160,248.5C 166.888,236.786 174.721,225.786 183.5,215.5 Z"/></g>
</svg>
